<svg width="24" height="24" viewBox="0 0 24 24" fill="none" xmlns="http://www.w3.org/2000/svg">
<g id="chevron-right">
<path id="Vector" fill-rule="evenodd" clip-rule="evenodd" d="M21.5297 17.0311C21.5995 16.9615 21.6549 16.8787 21.6927 16.7876C21.7305 16.6965 21.75 16.5988 21.75 16.5001C21.75 16.4015 21.7305 16.3038 21.6927 16.2127C21.6549 16.1216 21.5995 16.0388 21.5297 15.9691L12.5297 6.96912C12.46 6.89928 12.3772 6.84386 12.2861 6.80605C12.195 6.76825 12.0973 6.74878 11.9987 6.74878C11.9 6.74878 11.8023 6.76825 11.7112 6.80605C11.6201 6.84386 11.5373 6.89928 11.4677 6.96912L2.46766 15.9691C2.32683 16.11 2.24771 16.301 2.24771 16.5001C2.24771 16.6993 2.32683 16.8903 2.46766 17.0311C2.60849 17.172 2.7995 17.2511 2.99866 17.2511C3.19782 17.2511 3.38883 17.172 3.52966 17.0311L11.9987 8.56062L20.4677 17.0311C20.5373 17.101 20.6201 17.1564 20.7112 17.1942C20.8023 17.232 20.9 17.2515 20.9987 17.2515C21.0973 17.2515 21.195 17.232 21.2861 17.1942C21.3772 17.1564 21.46 17.101 21.5297 17.0311Z" fill="#232424"/>
</g>
</svg>
