<svg width="231" height="88" viewBox="0 0 231 88" fill="none" xmlns="http://www.w3.org/2000/svg">
<g clip-path="url(#clip0_501_3498)">
<path d="M44.0625 87.8132C68.3975 87.8132 88.125 68.1555 88.125 43.9066C88.125 19.6576 68.3975 0 44.0625 0C19.7275 0 0 19.6576 0 43.9066C0 68.1555 19.7275 87.8132 44.0625 87.8132Z" fill="#0BA299"/>
<path d="M82.125 51.5674C83.25 49.699 85.3125 49.1385 84.9375 50.0727C84.375 51.7542 81.375 56.612 80.25 62.2171L82.125 51.5674Z" fill="#B9D9D6"/>
<path d="M81.375 46.3359C81.5625 46.3359 81.75 46.5228 81.75 46.7096L80.625 53.9962L79.125 64.6459V65.3933L77.625 57.1725V56.9856C76.875 53.2489 80.625 46.5228 81.375 46.3359Z" fill="#B9D9D6"/>
<path d="M78.3748 66.5144C78.3748 66.7012 78.3748 66.888 78.3748 66.888C78.1873 67.6354 77.9998 68.1959 74.9998 69.5037V69.3169C75.1873 68.9432 75.1873 68.5696 74.9998 68.1959C74.8123 67.6354 74.6248 66.888 74.4373 65.9538C74.0623 64.2723 73.4998 62.404 73.1248 60.7224C72.3748 57.9199 71.9998 55.1173 72.5623 52.3148C72.9373 48.9517 74.0623 47.8307 74.6248 47.457C74.8123 47.457 74.9998 47.457 74.9998 47.6439L76.8748 58.1067V58.2936L78.3748 66.5144Z" fill="#D5E6E4"/>
<path d="M73.5 66.5152C73.875 68.0099 74.0625 69.3178 74.0625 69.8783C73.875 70.6257 73.3125 71.373 72.1875 72.494C70.5 74.1755 63.75 84.0779 46.5 85.7594C46.5 85.7594 46.875 74.736 55.125 72.1203C58.6875 70.9993 61.5 70.252 63.75 69.6915C66.5625 69.131 68.4375 68.9441 69.1875 68.9441C69.5625 68.9441 69.75 67.4494 69.1875 64.8337C69.1875 64.46 69 63.8995 68.8125 63.5259C68.4375 62.218 68.0625 60.3496 67.875 58.4813C67.6875 56.0524 67.6875 53.6235 69 52.3157C69.1875 52.1288 69.375 52.3157 69.5625 52.5025C70.5 55.3051 72.375 62.218 73.5 66.5152Z" fill="#FCFCFC"/>
<path d="M67.6876 63.8988C67.6876 64.0857 64.6876 65.5804 62.0626 66.7014C61.1251 67.075 60.3751 65.954 60.9376 65.2067C63.1876 62.4041 63.7501 60.3489 63.5626 58.4806C63.5626 58.1069 63.3751 57.9201 63.3751 57.5464C63.3751 57.3595 63.0001 57.3595 63.0001 57.5464C60.5626 60.3489 53.4376 65.2067 49.3126 70.8118C46.8751 74.1748 46.5001 79.2194 46.6876 83.3298C46.6876 83.3298 47.0626 73.0538 54.5626 70.6249C57.7501 69.5039 60.3751 68.9434 62.4376 68.3829C65.0626 67.8224 66.7501 67.6356 67.5001 67.6356C68.0626 67.8224 68.2501 66.3277 67.6876 63.8988Z" fill="#B9D9D6"/>
<path d="M6.18752 51.5674C5.06252 49.699 3.00002 49.1385 3.37502 50.0727C3.93752 51.7542 6.93752 56.612 8.06252 62.2171L6.18752 51.5674Z" fill="#B9D9D6"/>
<path d="M6.75 46.3359C6.5625 46.3359 6.375 46.5228 6.375 46.7096L7.5 53.9962L9 64.6459L9.1875 65.3933L10.6875 57.1725V56.9856C11.25 53.2489 7.6875 46.5228 6.75 46.3359Z" fill="#B9D9D6"/>
<path d="M9.9375 66.5144C9.9375 66.7012 9.9375 66.888 9.9375 66.888C10.125 67.6354 10.3125 68.1959 13.3125 69.5037V69.3169C13.125 68.9432 13.125 68.5696 13.3125 68.1959C13.5 67.6354 13.6875 66.888 13.875 65.9538C14.25 64.2723 14.8125 62.404 15.1875 60.7224C15.9375 57.9199 16.3125 55.1173 15.75 52.3148C15.375 48.9517 14.25 47.8307 13.6875 47.457C13.5 47.457 13.3125 47.457 13.3125 47.6439L11.4375 58.1067V58.2936L9.9375 66.5144Z" fill="#D5E6E4"/>
<path d="M14.625 66.5152C14.25 68.0099 14.0625 69.3178 14.0625 69.8783C14.25 70.6257 14.8125 71.373 15.9375 72.494C17.625 74.1755 24.375 84.0779 41.625 85.7594C41.625 85.7594 41.25 74.736 33 72.1203C29.4375 70.9993 26.625 70.252 24.375 69.6915C21.5625 69.131 19.6875 68.9441 18.9375 68.9441C18.5625 68.9441 18.375 67.4494 18.9375 64.8337C18.9375 64.46 19.125 63.8995 19.3125 63.5259C19.6875 62.218 20.0625 60.3496 20.25 58.4813C20.4375 56.0524 20.4375 53.6235 19.125 52.3157C18.9375 52.1288 18.75 52.3157 18.5625 52.5025C17.625 55.3051 15.75 62.218 14.625 66.5152Z" fill="#FCFCFC"/>
<path d="M20.6248 63.8988C20.6248 64.0857 23.6248 65.5804 26.2498 66.7014C27.1873 67.075 27.9373 65.954 27.3748 65.2067C25.1248 62.4041 24.5623 60.3489 24.7498 58.4806C24.7498 58.1069 24.9373 57.9201 24.9373 57.5464C24.9373 57.3595 25.3123 57.3595 25.3123 57.5464C27.7498 60.3489 34.8748 65.2067 38.9998 70.8118C41.4373 74.1748 41.8123 79.2194 41.6248 83.3298C41.6248 83.3298 41.2498 73.0538 33.7498 70.6249C30.5623 69.5039 27.9373 68.9434 25.8748 68.3829C23.2498 67.8224 21.5623 67.6356 20.8123 67.6356C20.2498 67.8224 20.0623 66.3277 20.6248 63.8988Z" fill="#B9D9D6"/>
<path d="M52.3125 31.0155C55.5227 31.0155 58.125 28.4224 58.125 25.2236C58.125 22.0248 55.5227 19.4316 52.3125 19.4316C49.1023 19.4316 46.5 22.0248 46.5 25.2236C46.5 28.4224 49.1023 31.0155 52.3125 31.0155Z" fill="#FCFCFC"/>
<path d="M36 28.3989C39.3137 28.3989 42 25.7222 42 22.4202C42 19.1182 39.3137 16.4414 36 16.4414C32.6863 16.4414 30 19.1182 30 22.4202C30 25.7222 32.6863 28.3989 36 28.3989Z" fill="#FCFCFC"/>
<path d="M70.6873 45.0269C65.4373 36.2455 62.6248 31.3878 57.9373 30.0799C56.6248 31.5746 54.7498 32.5088 52.4998 32.5088C51.1873 32.5088 50.0623 32.1351 48.9373 31.5746C47.6248 32.5088 46.3123 33.8167 45.1873 35.685C44.4373 36.9929 42.7498 36.9929 42.3748 35.685C41.4373 32.6956 40.3123 30.4536 38.6248 29.1457C37.6873 29.5194 36.7498 29.7063 35.8123 29.7063C33.9373 29.7063 32.2498 28.9589 30.7498 27.8379C24.7498 29.3326 22.1248 34.3772 16.8748 44.84C16.6873 45.5874 16.8748 46.1479 17.2498 46.7084C17.4373 46.8952 17.4373 46.8952 17.6248 47.0821C18.1873 46.7084 18.7498 46.3347 19.3123 45.961L24.9373 41.1033C26.0623 39.9823 26.9998 38.8612 27.1873 38.4876L27.5623 38.6744L27.9373 38.8612C27.1873 40.1691 22.3123 45.2137 18.1873 47.8294C21.3748 51.0056 28.3123 57.5449 34.3123 60.3474C35.4373 56.6107 37.8748 53.0608 41.0623 51.753C41.8123 52.3135 42.9373 52.5003 43.8748 52.5003C44.9998 52.5003 45.9373 52.1266 46.6873 51.753C49.8748 53.2477 52.3123 56.6107 53.4373 60.3474C59.4373 57.5449 66.5623 50.8188 69.5623 47.8294C65.6248 45.2137 61.1248 40.1691 60.3748 38.8612L61.3123 38.4876C61.4998 38.8612 62.2498 39.9823 63.5623 41.1033L68.9998 46.1479C69.3748 46.5215 69.9373 46.8952 70.3123 47.0821L70.4998 46.8952C70.8748 46.1479 71.0623 45.5874 70.6873 45.0269ZM43.8748 51.5661C41.2498 51.5661 38.9998 49.3241 38.9998 46.7084C38.9998 44.0927 41.2498 41.8506 43.8748 41.8506C46.4998 41.8506 48.7498 44.0927 48.7498 46.7084C48.7498 49.3241 46.4998 51.5661 43.8748 51.5661Z" fill="#FCFCFC"/>
<path d="M222.187 79.5939H111C106.125 79.5939 102.188 75.6703 102.188 70.8126C102.188 65.9548 106.125 62.0312 111 62.0312H222.375C227.25 62.0312 231.188 65.9548 231.188 70.8126C231 75.6703 227.062 79.5939 222.187 79.5939Z" fill="#71C5C0"/>
<path d="M114.938 72.3083L113.063 68.3848H111.75V73.9899H113.25V71.3742L114.375 73.9899H115.313L116.625 71.3742V73.9899H117.938V68.3848H116.625L114.938 72.3083Z" fill="#FCFCFC"/>
<path d="M119.812 73.9899H123.937V72.8688H121.125V71.7478H123.75V70.6268H121.125V69.5058H123.937V68.3848H119.812V73.9899Z" fill="#FCFCFC"/>
<path d="M130.687 68.3848H126.188V69.8795C126.188 70.6268 126.187 71.1873 126 71.7478C125.812 72.3083 125.625 72.682 125.438 72.8688H124.875V75.4846H126.188V73.9899H130.125V75.4846H131.438V72.8688H130.687V68.3848ZM129.188 72.8688H126.937C127.125 72.4952 127.313 72.1215 127.313 71.7478C127.5 71.1873 127.5 70.6268 127.5 70.0663V69.5058H129V72.8688H129.188Z" fill="#FCFCFC"/>
<path d="M134.437 71.7478V68.3848H133.125V73.9899H134.25L136.875 70.6268V73.9899H138.187V68.3848H137.062L134.437 71.7478Z" fill="#FCFCFC"/>
<path d="M145.313 68.3848H143.812V72.8688H141.563V68.3848H140.062V73.9899H144.938V75.4846H146.25V72.8688H145.313V68.3848Z" fill="#FCFCFC"/>
<path d="M149.062 71.7478V68.3848H147.75V73.9899H148.875L151.5 70.6268V73.9899H152.812V68.3848H151.687L149.062 71.7478Z" fill="#FCFCFC"/>
<path d="M158.438 70.6268H156.188V68.3848H154.688V73.9899H156.188V71.7478H158.438V73.9899H159.938V68.3848H158.438V70.6268Z" fill="#FCFCFC"/>
<path d="M164.813 69.5058C165 69.5058 165.375 69.5058 165.563 69.6926C165.75 69.6926 165.938 69.8795 166.312 70.0663L166.688 68.9453C166.5 68.7584 166.125 68.5716 165.938 68.5716C165.563 68.3848 165.188 68.3848 164.813 68.3848C164.25 68.3848 163.688 68.5716 163.125 68.7584C162.75 68.9453 162.375 69.3189 162 69.6926C161.813 70.0663 161.625 70.6268 161.625 71.1873C161.625 71.7478 161.813 72.3083 162 72.682C162.188 73.0557 162.563 73.4294 163.125 73.6162C163.5 73.803 164.063 73.9899 164.813 73.9899C165.188 73.9899 165.563 73.9899 165.938 73.803C166.313 73.6162 166.5 73.6162 166.688 73.4294L166.312 72.3083C166.125 72.4952 165.75 72.682 165.563 72.682C165.188 72.8688 165 72.8688 164.813 72.8688C164.25 72.8688 163.875 72.682 163.688 72.4952C163.5 72.1215 163.313 71.7478 163.313 71.3742C163.313 70.8136 163.5 70.44 163.688 70.2531C163.875 70.0663 164.25 69.5058 164.813 69.5058Z" fill="#FCFCFC"/>
<path d="M171.937 71.1873C171.937 71.1873 171.75 71.1873 171.563 71.0005L173.25 68.3848H171.563L170.062 70.6268H169.5V68.3848H168V73.9899H169.5V71.7478H170.062C170.25 71.7478 170.438 71.7478 170.625 71.9347C170.813 72.1215 171 72.1215 171 72.4952L171.75 73.9899H173.438L172.5 71.9347C172.313 71.561 172.125 71.3742 171.937 71.1873Z" fill="#FCFCFC"/>
<path d="M176.25 71.7478V68.3848H174.938V73.9899H176.062L178.688 70.6268V73.9899H180V68.3848H178.875L176.25 71.7478Z" fill="#FCFCFC"/>
<path d="M183.187 71.7478V68.3848H181.875V73.9899H183L185.625 70.6268V73.9899H186.937V68.3848H186L183.187 71.7478Z" fill="#FCFCFC"/>
<path d="M183.562 67.8235C183.75 68.0103 184.125 68.0103 184.5 68.0103C184.875 68.0103 185.25 67.8235 185.625 67.6366C186 67.4498 186.188 67.0761 186.188 66.7025L185.437 66.5156C185.437 66.7025 185.25 66.8893 185.062 67.0761C184.875 67.263 184.688 67.263 184.312 67.263C184.125 67.263 183.75 67.263 183.562 67.0761C183.375 66.8893 183.187 66.7025 183.187 66.5156L182.438 66.7025C182.438 66.8893 182.625 67.0761 182.625 67.263C182.625 67.4498 183.375 67.6366 183.562 67.8235Z" fill="#FCFCFC"/>
<path d="M197.25 68.3848H195.75V72.8688H193.5V68.3848H192V73.9899H196.875V75.4846H198.187V72.8688H197.25V68.3848Z" fill="#FCFCFC"/>
<path d="M199.688 73.9899H203.625V72.8688H201V71.7478H203.438V70.6268H201V69.5058H203.625V68.3848H199.688V73.9899Z" fill="#FCFCFC"/>
<path d="M209.062 70.6268H206.813V68.3848H205.312V73.9899H206.813V71.7478H209.062V73.9899H210.563V68.3848H209.062V70.6268Z" fill="#FCFCFC"/>
<path d="M212.062 69.5058H213.75V73.9899H215.25V69.5058H216.937V68.3848H212.062V69.5058Z" fill="#FCFCFC"/>
<path d="M222.75 68.7578C222.375 68.3841 222 68.1973 221.25 68.1973H218.438V73.8024H219.938V71.7472H221.25C221.813 71.7472 222.375 71.5603 222.75 71.1866C223.125 70.813 223.312 70.4393 223.312 69.8788C223.125 69.5051 222.938 69.1314 222.75 68.7578ZM221.625 70.6261C221.437 70.813 221.25 70.813 221.063 70.813H219.938V69.5051H221.063C221.25 69.5051 221.437 69.5051 221.625 69.692C221.812 69.8788 221.813 69.8788 221.813 70.2525C221.813 70.2525 221.625 70.4393 221.625 70.6261Z" fill="#FCFCFC"/>
<path d="M231 36.8075C231 34.5655 229.125 32.5103 226.688 32.5103H202.313C200.813 32.5103 199.5 31.2024 199.5 29.7078C199.5 28.2131 199.5 26.7184 199.5 26.3447C199.5 19.9923 194.625 15.1345 188.625 15.1345C186.75 15.1345 126.375 15.1345 124.5 15.1345H123.375V15.3213C123.375 13.0793 121.5 11.2109 119.063 11.2109H106.125C103.875 11.2109 101.813 13.0793 101.813 15.3213V38.4891V41.2916C101.813 43.5337 103.688 45.5889 106.125 45.5889C106.125 45.5889 106.313 45.9625 105.75 45.9625C104.625 46.1494 103.688 46.8967 102.938 47.8309L101.625 49.8861C100.5 51.5676 100.688 53.9965 102.188 55.3044C105.188 57.9201 108.938 59.2279 113.25 59.2279C115.125 59.2279 129.188 59.2279 129.188 59.2279C129.188 59.2279 207.563 59.2279 226.688 59.2279C228.938 59.2279 230.813 57.3596 230.813 55.1175V36.8075H231Z" fill="#0BA299"/>
<path d="M115.5 22.2339H109.312V17.9367H119.25C119.437 17.9367 119.813 17.7498 119.813 17.3761V15.3209C119.813 15.1341 119.625 14.9473 119.25 14.9473H106.312C106.125 14.9473 105.75 15.1341 105.75 15.3209V33.4441C105.75 33.6309 105.937 34.0046 106.312 34.0046H115.5C118.5 34.0046 121.125 31.3889 121.125 28.2127C121.125 24.8496 118.687 22.2339 115.5 22.2339ZM115.5 30.8284H109.312V25.5969H115.5C116.812 25.5969 117.75 27.0916 117.75 28.2127C117.75 29.3337 116.812 30.8284 115.5 30.8284Z" fill="#FCFCFC"/>
<path d="M126.187 34.0055H128.437L128.062 35.3134C128.062 35.687 127.687 35.8739 127.5 35.8739H126C125.812 35.8739 125.437 36.0607 125.437 36.4344V38.6764C125.437 38.8633 125.625 39.0501 125.812 39.0501L127.5 39.2369C129 39.2369 130.687 38.4896 131.25 36.6212L136.312 19.6191C136.312 19.4323 136.312 19.2454 136.312 19.2454C136.312 19.0586 136.125 19.0586 135.937 19.0586H133.5C133.312 19.0586 133.125 19.2454 133.125 19.4323L129.75 30.4556H128.625L125.25 19.4323C125.25 19.2454 125.062 19.0586 124.875 19.0586H122.437C122.25 19.0586 122.062 19.0586 122.062 19.2454C122.062 19.4323 121.875 19.4323 122.062 19.6191L126.187 33.445C125.812 33.8187 126 34.0055 126.187 34.0055Z" fill="#FCFCFC"/>
<path d="M152.25 30.6425H150.938V19.6191C150.938 19.4323 150.75 19.0586 150.375 19.0586H138.938C138.75 19.0586 138.375 19.2454 138.375 19.6191V21.6743C138.375 21.8611 138.563 22.048 138.75 22.048L140.062 22.2348L138.563 30.082C138.563 30.4556 138.188 30.8293 138 30.8293H136.688C136.5 30.8293 136.125 31.0161 136.125 31.3898V35.5002C136.125 35.687 136.313 36.0607 136.688 36.0607H138.938C139.125 36.0607 139.313 35.8739 139.313 35.687L139.5 34.0055H149.25L149.437 35.687C149.437 35.8739 149.625 36.0607 149.813 36.0607H152.062C152.25 36.0607 152.625 35.8739 152.625 35.5002V31.203C152.813 30.8293 152.437 30.6425 152.25 30.6425ZM147.562 22.2348V30.6425H141.937L143.625 22.2348H147.562Z" fill="#FCFCFC"/>
<path d="M155.062 34.0042H163.312C166.125 34.0042 168.187 31.7622 168.187 29.1465C168.187 26.5308 165.937 24.2887 163.312 24.2887H158.063V19.8047C158.063 19.6178 157.875 19.2441 157.5 19.2441H155.062C154.875 19.2441 154.5 19.431 154.5 19.8047V33.6306C154.5 33.6306 154.687 34.0042 155.062 34.0042ZM163.312 30.6412H158.063V27.4649H163.312C164.25 27.4649 164.812 28.2123 164.812 28.9596C164.812 29.8938 164.062 30.6412 163.312 30.6412Z" fill="#FCFCFC"/>
<path d="M168 22.4217H172.5V33.445C172.5 33.6318 172.687 34.0055 173.062 34.0055H175.5C175.687 34.0055 176.062 33.8187 176.062 33.445V22.4217H180.562C180.75 22.4217 181.125 22.2348 181.125 21.8611V19.6191C181.125 19.4323 180.937 19.0586 180.562 19.0586H168.187C168 19.0586 167.625 19.2454 167.625 19.6191V21.8611C167.437 22.2348 167.812 22.4217 168 22.4217Z" fill="#FCFCFC"/>
<path d="M188.812 34.0055C192.562 34.0055 194.438 31.9503 194.625 31.5766C194.813 31.3898 194.813 31.203 194.625 31.0161L193.125 29.1478C193.125 28.9609 192.938 28.9609 192.75 28.9609C192.563 28.9609 192.563 28.9609 192.375 29.1478C191.813 29.8951 190.688 30.6425 188.625 30.6425C186.938 30.6425 185.438 29.5214 184.875 27.8399H195.375C195.562 27.8399 195.75 27.6531 195.75 27.4662C195.75 27.2794 195.75 26.9057 195.75 26.5321C195.75 22.4217 192.563 19.0586 188.625 19.0586C184.5 19.0586 181.312 22.4217 181.312 26.5321C181.313 30.6425 184.5 34.0055 188.812 34.0055ZM188.625 22.4217C190.125 22.4217 191.438 23.3558 192 24.6637H185.062C185.625 23.3558 187.125 22.4217 188.625 22.4217Z" fill="#FCFCFC"/>
<path d="M119.25 45.0274C120.375 44.4669 121.312 43.159 121.312 41.6644C121.312 37.7408 116.438 36.2461 113.25 36.2461C111.188 36.2461 108.375 36.8066 106.125 38.1145C105.937 38.1145 105.937 38.3013 105.937 38.4881V41.2907C105.937 41.4775 106.125 41.8512 106.5 41.8512H108.75C108.938 41.8512 109.125 41.6644 109.125 41.4775L109.312 40.5433C110.437 40.1697 111.75 39.796 113.437 39.796C115.875 39.796 117.75 40.917 117.75 41.8512C117.75 42.2249 117.75 43.5327 114.188 43.5327H111.75C111.562 43.5327 111.187 43.7196 111.187 44.0932V46.5221C111.187 46.7089 111.375 47.0826 111.75 47.0826H114C115.687 47.0826 118.312 47.4563 118.312 49.6983C118.312 51.0062 116.437 52.314 113.437 52.314C110.812 52.314 108.75 51.5667 107.062 49.8852C106.875 49.6983 106.875 49.6983 106.688 49.6983C106.5 49.6983 106.5 49.6983 106.313 49.8852L105 51.9404C104.813 52.1272 104.813 52.314 105 52.5009C107.25 54.5561 110.062 55.4903 113.437 55.4903C117.562 55.4903 122.062 53.2482 122.062 49.5115C121.875 47.2695 120.562 45.7748 119.25 45.0274Z" fill="#FCFCFC"/>
<path d="M138.562 52.1268H137.25V41.1035C137.25 40.9166 137.062 40.543 136.687 40.543H125.25C125.062 40.543 124.687 40.7298 124.687 41.1035V43.1587C124.687 43.3455 124.875 43.5324 125.062 43.5324L126.375 43.7192L124.875 51.5663C124.875 51.94 124.5 52.3137 124.312 52.3137H123C122.812 52.3137 122.438 52.5005 122.438 52.8742V57.1714C122.438 57.3583 122.625 57.7319 123 57.7319H125.25C125.437 57.7319 125.625 57.5451 125.625 57.3583L125.812 55.6767H135.562L135.75 57.3583C135.75 57.5451 135.937 57.7319 136.125 57.7319H138.375C138.562 57.7319 138.937 57.5451 138.937 57.1714V52.8742C139.125 52.3137 138.75 52.1268 138.562 52.1268ZM133.875 43.7192V52.1268H128.25L129.937 43.7192H133.875Z" fill="#FCFCFC"/>
<path d="M147.562 40.543C143.437 40.543 139.875 43.906 139.875 48.0164C139.875 52.1268 143.437 55.4899 147.562 55.4899C151.687 55.4899 155.25 52.1268 155.25 48.0164C155.25 43.906 151.687 40.543 147.562 40.543ZM147.562 52.1268C145.312 52.1268 143.25 50.2585 143.25 48.0164C143.25 45.7744 145.125 43.906 147.562 43.906C149.812 43.906 151.875 45.7744 151.875 48.0164C151.688 50.2585 149.812 52.1268 147.562 52.1268Z" fill="#FCFCFC"/>
<path d="M163.875 40.543C162.75 40.543 161.062 41.1035 159.75 41.8508L159.562 41.1035C159.562 40.9166 159.375 40.7298 159.188 40.7298H157.125C156.938 40.7298 156.562 40.9166 156.562 41.2903V59.4135H159.938V55.1162C161.063 55.4899 162 55.8636 162.938 55.8636C167.25 55.8636 170.438 52.6873 170.438 48.3901C170.813 43.906 167.625 40.543 163.875 40.543ZM163.5 52.1268C162.375 52.1268 161.25 51.94 160.125 51.1926V45.2139C161.25 44.4665 162.375 44.0929 163.5 44.0929C165.75 44.0929 167.438 45.9612 167.438 48.2033C167.25 50.2585 165.75 52.1268 163.5 52.1268Z" fill="#FCFCFC"/>
<path d="M179.437 40.543C175.312 40.543 171.75 43.906 171.75 48.0164C171.75 52.1268 175.312 55.4899 179.437 55.4899C183.562 55.4899 187.125 52.1268 187.125 48.0164C187.125 43.906 183.562 40.543 179.437 40.543ZM179.437 52.1268C177.187 52.1268 175.125 50.2585 175.125 48.0164C175.125 45.7744 177 43.906 179.437 43.906C181.687 43.906 183.75 45.7744 183.75 48.0164C183.563 50.2585 181.687 52.1268 179.437 52.1268Z" fill="#FCFCFC"/>
<path d="M200.438 47.4559C201 46.8954 201.375 45.7744 201.375 45.027C201.375 42.5982 199.313 40.543 196.875 40.543H189.188C189 40.543 188.625 40.7298 188.625 41.1035V54.9294C188.625 55.1162 188.813 55.4899 189.188 55.4899H197.438C200.063 55.4899 202.125 53.4347 202.125 50.819C202.125 49.5111 201.375 48.2033 200.438 47.4559ZM192 49.5111H197.25C198 49.5111 198.563 50.0716 198.563 50.819C198.563 51.5663 198 52.1268 197.25 52.1268H192V49.5111ZM197.25 46.1481H192.188V44.0929H197.062C197.625 44.0929 198.187 44.6534 198.187 45.2139C198 45.5876 197.437 46.1481 197.25 46.1481Z" fill="#FCFCFC"/>
<path d="M212.062 45.5876H207.562V41.1035C207.562 40.9166 207.375 40.543 207 40.543H204.562C204.375 40.543 204 40.7298 204 41.1035V54.9294C204 55.1162 204.187 55.4899 204.562 55.4899H212.062C214.875 55.4899 216.937 53.2479 216.937 50.6321C216.937 47.8296 214.687 45.5876 212.062 45.5876ZM212.062 52.1268H207.562V48.9506H212.062C213 48.9506 213.562 49.698 213.562 50.4453C213.562 51.3795 212.812 52.1268 212.062 52.1268Z" fill="#FCFCFC"/>
<path d="M220.687 40.7305H218.25C218.063 40.7305 217.688 40.9173 217.688 41.291V55.1169C217.688 55.3037 217.875 55.6774 218.25 55.6774H220.687C220.875 55.6774 221.25 55.4906 221.25 55.1169V41.1041C221.063 40.9173 220.875 40.7305 220.687 40.7305Z" fill="#FCFCFC"/>
<path d="M224.625 50.2588H226.875C227.063 50.2588 227.438 50.072 227.438 49.6983V36.8066C227.438 36.6198 227.25 36.2461 226.875 36.2461H224.625C224.438 36.2461 224.062 36.4329 224.062 36.8066V49.6983C224.062 50.072 224.25 50.2588 224.625 50.2588Z" fill="#FCFCFC"/>
<path d="M225.563 51.3809C224.438 51.3809 223.312 52.315 223.312 53.4361C223.312 54.5571 224.25 55.4913 225.563 55.4913C226.875 55.4913 227.813 54.5571 227.813 53.4361C227.813 52.315 226.875 51.3809 225.563 51.3809Z" fill="#FCFCFC"/>
</g>
<defs>
<clipPath id="clip0_501_3498">
<rect width="231" height="88" fill="white"/>
</clipPath>
</defs>
</svg>
